<svg width="432" height="83" viewBox="0 0 432 83" fill="none" xmlns="http://www.w3.org/2000/svg">
<path d="M138.514 33.3495C148.123 22.5998 164.259 18.443 177.848 23.3231C190.119 27.7153 197.786 39.5298 197.071 52.9237C196.863 56.9164 196.863 56.9169 192.812 56.9169H151.185C152.276 61.4818 154.858 64.7026 158.851 66.5614C166.938 70.3325 174.658 69.5337 181.659 63.8993C182.986 62.8303 183.616 62.9591 184.681 64.077C187.019 66.5436 189.427 68.9529 191.934 71.2421C193.047 72.258 192.976 72.8615 191.982 73.8641C186.867 79.0326 180.518 81.6327 173.46 82.4579C164.476 83.5093 155.758 82.5149 147.772 77.83C144.256 75.7553 141.229 72.9452 138.899 69.5917C138.465 68.975 137.808 68.3984 138.531 67.4579C143.19 61.4286 146.668 54.6182 151.145 48.4647C152.32 46.8677 153.585 46.2554 155.581 46.2909C163.043 46.4018 170.51 46.3002 177.972 46.4022C179.773 46.4288 179.898 45.8203 179.454 44.3651C177.493 37.9899 171.14 34.1526 163.966 34.8846C157.307 35.5679 152.529 39.321 148.398 44.1522C145.785 47.1956 143.895 50.7184 141.792 54.1034C138.163 59.9596 134.52 65.7626 129.547 70.6073C117.306 82.5194 97.0181 86.4466 81.3438 79.5477C70.6163 74.8228 64.782 66.2374 63.8281 54.6093C62.2577 35.439 75.985 22.1869 94.2324 21.4637C105.559 21.0157 115.209 24.401 122.059 33.9218C126.885 40.612 126.885 42.2362 122.387 48.9442C117.054 56.9298 117.054 56.9296 107.484 56.9296H81.6328C83.0037 63.0208 87.8435 67.4356 94.2852 68.3895C103.708 69.7648 111.961 67.1916 118.899 60.6034C122.892 56.7881 125.829 52.205 128.713 47.5468C131.747 42.6665 134.649 37.6796 138.514 33.3495ZM386.29 23.5487C397.386 19.8354 408.362 20.4478 418.464 26.7919C428.845 33.318 433.823 45.328 431.41 57.7723C428.93 70.4919 420.962 78.2387 408.65 81.6903C405.5 82.5201 402.249 82.9034 398.992 82.83C387.772 82.7279 378.132 79.1479 371.206 69.8622C361.286 56.5792 363.548 31.1663 386.29 23.5487ZM251.681 1.4823C263.633 1.56659 275.612 1.52625 287.591 1.52625C292.328 1.48429 297.037 2.2635 301.508 3.82898C315.953 9.00643 323.087 23.8202 318.185 38.9266C314.476 50.3903 305.763 55.8912 294.405 57.7723C286.633 59.0589 278.771 58.3049 270.949 58.3759C268.939 58.3936 268.514 58.9486 268.554 60.8563C268.682 67.0674 268.553 73.279 268.642 79.4901C268.664 81.0647 268.393 81.6989 266.619 81.6591C261.526 81.5348 256.419 81.557 251.321 81.6591C249.724 81.69 249.383 81.1753 249.383 79.6493C249.467 73.2829 249.418 66.9297 249.418 60.5721V41.495C249.418 28.9351 249.459 16.3752 249.379 3.81531C249.366 1.98767 249.827 1.48236 251.681 1.4823ZM362.315 21.4686C363.682 21.4332 364.276 21.6948 364.236 23.243C364.125 27.5243 364.143 31.8102 364.236 36.1093C364.263 37.4889 363.917 37.8837 362.506 37.7196C359.165 37.3159 355.851 37.5512 352.706 38.8466C346.553 41.3843 344.379 46.5483 344.25 52.6796C344.059 61.4683 344.09 70.2659 344.25 79.0546C344.285 81.2728 343.619 81.7164 341.552 81.6454C337.053 81.4813 332.542 81.548 328.034 81.619C326.663 81.619 326.1 81.3794 326.104 79.8221C326.167 61.1889 326.176 42.5704 326.135 23.9667C326.135 22.5647 326.579 22.2408 327.91 22.2675C332.347 22.3473 336.783 22.3562 341.22 22.2675C342.715 22.2365 343.358 22.5779 343.233 24.1971C343.043 26.0072 343.149 27.8399 343.149 30.3065C348.353 23.6872 354.924 21.6683 362.315 21.4686ZM59.5293 1.49988C61.0155 1.49988 61.4193 1.9433 61.3838 3.38074C61.2862 7.14716 61.2551 10.9225 61.3838 14.6844C61.4415 16.4101 60.9893 16.9253 59.1973 16.9032C46.7085 16.81 34.2149 16.9033 21.7217 16.788C19.8184 16.788 19.2098 17.1654 19.2764 19.1796C19.4405 24.2016 19.4006 29.2326 19.2764 34.2635C19.2276 36.0379 19.6273 36.6148 21.5391 36.5927C32.5505 36.4862 43.5667 36.5922 54.5781 36.4813C56.3971 36.4813 56.9876 36.8589 56.9033 38.7489C56.7347 42.4399 56.7614 46.1443 56.9033 49.8397C56.9566 51.4279 56.4596 51.7655 54.9336 51.7567C43.9176 51.6902 32.9056 51.7565 21.8896 51.6766C19.9645 51.6767 19.2595 52.0186 19.2949 54.161C19.4369 62.657 19.3172 71.1625 19.3926 79.663C19.3925 81.2243 18.9481 81.6681 17.4043 81.6415C12.3024 81.5527 7.20004 81.5394 2.10254 81.6415C0.359434 81.6724 5.13771e-05 81.1311 0 79.5077C0.0709848 68.5672 0.0400391 57.626 0.0400391 46.6854V14.0907C0.00813067 13.5118 0.104605 12.9324 0.323242 12.3954C0.541881 11.8585 0.877521 11.3772 1.30469 10.9852C4.09084 8.24788 6.84139 5.45701 9.56543 2.66199C9.91016 2.28673 10.3332 1.99193 10.8047 1.79871C11.2763 1.60547 11.785 1.51834 12.2939 1.54382C28.0376 1.56453 43.7827 1.55016 59.5293 1.49988ZM207.28 -0.00891113C212.08 0.124172 216.89 0.0709447 221.694 -0.00891113C222.932 -0.00890491 223.504 0.133014 223.5 1.62781C223.447 27.7206 223.447 53.8124 223.5 79.9022C223.5 81.3573 222.976 81.5967 221.698 81.579C216.818 81.5169 211.938 81.4902 207.058 81.579C205.532 81.6099 205.261 81.0686 205.283 79.6757C205.31 66.7121 205.288 53.7041 205.292 40.6962C205.292 27.8303 205.319 14.9644 205.257 2.09851C205.257 0.510227 205.541 -0.0577132 207.28 -0.00891113ZM409.751 40.6161C405.332 36.1664 399.937 35.0222 394.055 36.7567C388.088 38.5224 384.738 42.8569 383.851 48.8993C382.928 55.2345 384.169 61.0866 389.617 65.1327C394.599 68.8327 400.194 69.2104 405.727 66.5087C408.149 65.3766 410.203 63.5828 411.651 61.3348C413.099 59.087 413.883 56.4754 413.912 53.8016C413.979 47.7859 412.896 43.7837 409.751 40.6161ZM95.8867 34.8134C89.0902 34.8312 83.8199 38.4738 81.9033 44.3387C81.4109 45.8427 81.5038 46.411 83.2695 46.3622C87.4177 46.2513 91.5398 46.3216 95.6924 46.326C99.8448 46.3305 103.984 46.2601 108.114 46.3622C109.875 46.4065 110.288 45.9628 109.711 44.246C107.79 38.4918 102.457 34.8134 95.8867 34.8134ZM290.19 17.3553C283.385 16.1575 276.485 17.0628 269.631 16.8143C268.438 16.7746 268.602 17.5825 268.602 18.3055V29.8407C268.602 33.7535 268.651 37.6662 268.571 41.579C268.545 42.8522 268.944 43.2076 270.186 43.1766C273.211 43.0968 276.242 43.1947 279.268 43.1415C282.874 43.0749 286.499 43.4424 290.088 42.6971C296.627 41.3396 300.475 36.6768 300.475 30.0087C300.492 23.2342 296.845 18.5355 290.19 17.3553Z" fill="url(#paint0_linear_2054_1071)"/>
<defs>
<linearGradient id="paint0_linear_2054_1071" x1="0" y1="-0.0118408" x2="38.1904" y2="170.928" gradientUnits="userSpaceOnUse">
<stop stop-color="#08C8F6"/>
<stop offset="1" stop-color="#4D5DFB"/>
</linearGradient>
</defs>
</svg>
